<svg version="1.1" id="Layer_1" xmlns="http://www.w3.org/2000/svg" xmlns:xlink="http://www.w3.org/1999/xlink" x="0px" y="0px"
	 width="100%" viewBox="0 0 4000 1000" enable-background="new 0 0 4000 1000" xml:space="preserve">
<path fill="transparent" opacity="1.000000" stroke="none" 
	d="
M3461.000000,1001.000000 
	C3387.639893,1001.000000 3314.279541,1001.000000 3240.112793,1000.616943 
	C3239.537354,998.640930 3239.970947,997.048096 3239.971191,995.455261 
	C3240.001221,760.800171 3240.000732,526.145020 3239.990723,291.489899 
	C3239.990723,290.055054 3239.845215,288.620209 3239.773682,287.292847 
	C3160.011963,287.292847 3080.609375,287.292847 3001.000000,287.292847 
	C3001.000000,525.390381 3001.000000,763.195190 3001.000000,1001.000000 
	C2964.973145,1001.000000 2928.946289,1001.000000 2892.112793,1000.616943 
	C2891.537354,998.640930 2891.970215,997.048218 2891.970947,995.455200 
	C2892.004639,927.131042 2892.001465,858.806946 2891.990234,790.482788 
	C2891.989990,789.048645 2891.843994,787.614502 2891.771973,786.288086 
	C2812.345459,786.288086 2733.280762,786.288086 2653.819336,786.288086 
	C2653.819336,809.979431 2653.819336,833.385132 2653.819336,857.179443 
	C2609.020508,857.179443 2564.618164,857.179443 2520.000000,857.179443 
	C2520.000000,905.382812 2520.000000,953.191406 2520.000000,1001.000000 
	C2508.306396,1001.000000 2496.613037,1001.000000 2484.112793,1000.616943 
	C2483.537354,998.307617 2483.970459,996.381531 2483.970947,994.455261 
	C2484.004150,900.794434 2484.000000,807.133667 2484.000000,713.472839 
	C2484.000000,711.710938 2484.000000,709.948975 2484.000000,707.800537 
	C2559.999268,707.800537 2635.401855,707.800537 2710.700684,707.800537 
	C2710.700684,661.333496 2710.700684,615.263489 2710.700684,568.798828 
	C2634.999023,568.798828 2559.596436,568.798828 2483.800781,568.798828 
	C2483.800781,474.668030 2483.800781,380.933105 2483.800781,287.296204 
	C2404.003662,287.296204 2324.601807,287.296204 2245.000000,287.296204 
	C2245.000000,525.394897 2245.000000,763.197449 2245.000000,1001.000000 
	C2206.973145,1001.000000 2168.946289,1001.000000 2130.112793,1000.616943 
	C2129.537598,998.640991 2129.970947,997.048096 2129.971191,995.455200 
	C2130.001221,760.803833 2130.000488,526.152466 2129.990479,291.501099 
	C2129.990479,290.065338 2129.846924,288.629578 2129.775391,287.287415 
	C2049.687500,287.287415 1969.952637,287.287415 1889.823975,287.287415 
	C1889.823975,380.642426 1889.823975,473.710663 1889.823975,567.174438 
	C1831.359863,567.174438 1773.289673,567.174438 1715.286865,567.174438 
	C1715.286865,615.308594 1715.286865,663.045105 1715.286865,711.177307 
	C1774.309692,711.177307 1833.046509,711.177307 1892.000000,711.177307 
	C1892.000000,808.049500 1892.000000,904.524719 1892.000000,1001.000000 
	C1821.306519,1001.000000 1750.612915,1001.000000 1679.112793,1000.617004 
	C1678.537354,998.641174 1678.971191,997.048401 1678.971313,995.455566 
	C1679.001343,760.800293 1679.000488,526.145081 1678.990479,291.489838 
	C1678.990356,290.054932 1678.844971,288.620026 1678.773315,287.292786 
	C1599.012085,287.292786 1519.609497,287.292786 1440.000000,287.292786 
	C1440.000000,525.390381 1440.000000,763.195190 1440.000000,1001.000000 
	C1348.306519,1001.000000 1256.612915,1001.000000 1164.112671,1000.617004 
	C1163.537231,998.641174 1163.970947,997.048401 1163.971191,995.455566 
	C1164.001831,824.799683 1164.000732,654.143738 1163.990479,483.487854 
	C1163.990479,482.053131 1163.844849,480.618378 1163.773193,479.292053 
	C1081.011719,479.292053 998.610107,479.292053 916.000000,479.292053 
	C916.000000,653.389343 916.000000,827.194702 916.000000,1001.000000 
	C876.973145,1001.000000 837.946289,1001.000000 798.153687,1000.688171 
	C797.361328,999.494629 797.575623,998.518616 797.272888,997.745056 
	C790.560425,980.594971 783.832031,963.450867 777.021484,946.339539 
	C768.727295,925.500610 760.323914,904.705200 752.023804,883.868652 
	C741.354492,857.084290 730.785095,830.260010 720.090027,803.486023 
	C710.461914,779.382690 700.642273,755.355713 691.053406,731.236938 
	C680.225464,704.001465 669.642029,676.668701 658.800720,649.438660 
	C649.318542,625.622131 639.542725,601.922607 630.048706,578.110779 
	C619.193726,550.885498 608.573975,523.566406 597.724609,496.338806 
	C589.598877,475.946320 581.173096,455.673370 573.058411,435.276581 
	C562.401184,408.489075 551.946594,381.621033 541.351562,354.808685 
	C532.934082,333.506836 524.402527,312.250000 516.012878,290.937225 
	C514.823303,287.915192 513.104004,286.910400 509.771515,286.915314 
	C435.108337,287.025757 360.445007,286.998596 285.781677,287.012054 
	C284.549957,287.012268 283.318237,287.193207 281.592041,287.328583 
	C345.122375,451.796509 408.466431,615.782166 471.920319,780.052124 
	C428.831116,780.052124 386.180084,780.052124 343.591949,780.052124 
	C326.965759,827.655640 310.395508,875.098938 293.675537,922.971069 
	C372.024323,922.971069 449.815796,922.971069 527.395691,922.971069 
	C534.688843,941.962341 541.887329,960.622070 549.014465,979.309082 
	C551.759827,986.507507 554.342957,993.767883 557.000000,1001.000000 
	C448.973145,1001.000000 340.946259,1001.000000 232.152863,1000.681885 
	C234.805237,990.171021 238.261475,979.990601 241.635452,969.783081 
	C249.031174,947.408142 256.385223,925.019531 263.756317,902.636475 
	C271.127380,880.253479 278.518585,857.877136 285.863892,835.485657 
	C293.160065,813.243896 300.389740,790.980225 307.685944,768.738403 
	C315.031189,746.346985 322.415741,723.968445 329.795105,701.588196 
	C338.831451,674.182617 348.046783,646.834412 356.823822,619.346130 
	C359.508331,610.938721 364.821472,602.469604 359.013519,593.202332 
	C358.167633,591.852661 357.580414,590.317200 357.027618,588.811096 
	C347.923309,564.007080 338.925781,539.163513 329.738068,514.390442 
	C318.043182,482.857208 306.199524,451.379150 294.418732,419.877777 
	C285.050751,394.828217 275.669067,369.783875 266.318390,344.727875 
	C263.141022,336.213745 260.039703,327.671265 256.442627,317.887848 
	C252.404922,328.592346 248.887192,337.847168 245.420868,347.121216 
	C234.095200,377.422791 222.810684,407.739746 211.467667,438.034821 
	C200.461304,467.430664 189.379074,496.798096 178.372711,526.193909 
	C167.029694,556.488953 155.768356,586.814514 144.415878,617.106018 
	C131.377045,651.897156 118.213539,686.641663 105.224144,721.451172 
	C94.642960,749.807190 84.340370,778.267151 73.728661,806.611572 
	C61.936226,838.109741 49.843037,869.495300 38.047832,900.992371 
	C26.255627,932.481323 14.677430,964.050415 2.939866,995.559875 
	C2.704054,996.192993 1.664529,996.526611 0.999989,997.000000 
	C1.000000,665.021973 1.000000,333.043884 1.000000,1.032919 
	C1334.223267,1.032919 2667.446533,1.032919 4000.834961,1.032919 
	C4000.834961,334.333282 4000.834961,667.666626 4000.834961,1001.000000 
	C3906.237549,1001.000000 3811.578369,1001.000000 3716.163574,1000.736694 
	C3715.452148,1000.020203 3715.694092,999.458618 3715.513184,999.129211 
	C3706.929199,983.490234 3698.269287,967.892944 3689.705322,952.242981 
	C3683.069580,940.117249 3676.631836,927.882996 3669.959717,915.777466 
	C3657.853516,893.811829 3645.575928,871.940674 3633.493164,849.962341 
	C3626.446289,837.143982 3619.743408,824.136658 3612.698242,811.317139 
	C3602.265869,792.332642 3591.666504,773.439636 3580.901855,754.082153 
	C3582.182617,752.975220 3583.515869,751.961060 3584.690430,750.787964 
	C3619.003174,716.512634 3653.277588,682.198914 3687.646729,647.980164 
	C3690.047607,645.589966 3691.090088,643.268372 3691.084229,639.809082 
	C3690.971680,570.976135 3690.974609,502.142944 3691.076172,433.309967 
	C3691.081299,429.897125 3690.177979,427.522949 3687.730957,425.103149 
	C3643.929688,381.789642 3600.221680,338.382141 3556.494629,294.993774 
	C3554.721191,293.234222 3553.154053,291.180878 3551.132324,289.782379 
	C3549.267578,288.492188 3546.921387,287.116058 3544.784912,287.112854 
	C3456.452148,286.981049 3368.118896,286.998749 3279.785889,287.012878 
	C3278.533203,287.013092 3277.280273,287.206573 3276.192383,287.296295 
	C3276.192383,335.016815 3276.192383,382.304199 3276.192383,429.991913 
	C3335.788818,429.991913 3395.195068,429.991913 3454.799316,429.991913 
	C3454.799316,502.797974 3454.799316,575.202820 3454.799316,648.008911 
	C3395.194092,648.008911 3335.787842,648.008911 3276.209473,648.008911 
	C3276.209473,694.481750 3276.209473,740.553345 3276.209473,786.954468 
	C3304.525879,786.954468 3332.635742,786.954468 3360.342529,786.954468 
	C3364.179932,795.241943 3367.767334,803.132690 3371.474121,810.967041 
	C3379.923096,828.823181 3388.474365,846.630859 3396.902832,864.496521 
	C3408.413818,888.896362 3419.806152,913.352295 3431.332275,937.744995 
	C3438.815674,953.582214 3446.487061,969.330627 3453.989502,985.158752 
	C3456.462158,990.374878 3458.670654,995.716064 3461.000000,1001.000000 
M1260.500000,287.000000 
	C1083.742310,287.000000 906.984680,287.000000 730.285522,287.000000 
	C730.285522,339.303833 730.285522,391.041351 730.285522,442.717102 
	C936.971680,442.717102 1143.372192,442.717102 1349.714355,442.717102 
	C1349.714355,390.696167 1349.714355,338.958679 1349.714355,287.000000 
	C1320.119629,287.000000 1290.809814,287.000000 1260.500000,287.000000 
M2714.500000,494.000000 
	C2773.592529,494.000000 2832.685303,494.000000 2891.715332,494.000000 
	C2891.715332,424.694580 2891.715332,355.959229 2891.715332,287.280396 
	C2767.697754,287.280396 2643.965088,287.280396 2520.281738,287.280396 
	C2520.281738,333.631165 2520.281738,379.700989 2520.281738,426.167419 
	C2569.633057,426.167419 2618.704102,426.167419 2668.171631,426.167419 
	C2668.171631,448.969879 2668.171631,471.376740 2668.171631,494.000000 
	C2683.546875,494.000000 2698.523438,494.000000 2714.500000,494.000000 
z"/>
<path fill="#FFFFFF" opacity="1.000000" stroke="none" 
	d="
M2245.468750,1001.000000 
	C2245.000000,763.197449 2245.000000,525.394897 2245.000000,287.296204 
	C2324.601807,287.296204 2404.003662,287.296204 2483.800781,287.296204 
	C2483.800781,380.933105 2483.800781,474.668030 2483.800781,568.798828 
	C2559.596436,568.798828 2634.999023,568.798828 2710.700684,568.798828 
	C2710.700684,615.263489 2710.700684,661.333496 2710.700684,707.800537 
	C2635.401855,707.800537 2559.999268,707.800537 2484.000000,707.800537 
	C2484.000000,709.948975 2484.000000,711.710938 2484.000000,713.472839 
	C2484.000000,807.133667 2484.004150,900.794434 2483.970947,994.455261 
	C2483.970459,996.381531 2483.537354,998.307617 2483.653076,1000.616943 
	C2404.645752,1001.000000 2325.291748,1001.000000 2245.468750,1001.000000 
z"/>
<path fill="#FFFFFF" opacity="1.000000" stroke="none" 
	d="
M3461.468750,1001.000000 
	C3458.670654,995.716064 3456.462158,990.374878 3453.989502,985.158752 
	C3446.487061,969.330627 3438.815674,953.582214 3431.332275,937.744995 
	C3419.806152,913.352295 3408.413818,888.896362 3396.902832,864.496521 
	C3388.474365,846.630859 3379.923096,828.823181 3371.474121,810.967041 
	C3367.767334,803.132690 3364.179932,795.241943 3360.342529,786.954468 
	C3332.635742,786.954468 3304.525879,786.954468 3276.209473,786.954468 
	C3276.209473,740.553345 3276.209473,694.481750 3276.209473,648.008911 
	C3335.787842,648.008911 3395.194092,648.008911 3454.799316,648.008911 
	C3454.799316,575.202820 3454.799316,502.797974 3454.799316,429.991913 
	C3395.195068,429.991913 3335.788818,429.991913 3276.192383,429.991913 
	C3276.192383,382.304199 3276.192383,335.016815 3276.192383,287.296295 
	C3277.280273,287.206573 3278.533203,287.013092 3279.785889,287.012878 
	C3368.118896,286.998749 3456.452148,286.981049 3544.784912,287.112854 
	C3546.921387,287.116058 3549.267578,288.492188 3551.132324,289.782379 
	C3553.154053,291.180878 3554.721191,293.234222 3556.494629,294.993774 
	C3600.221680,338.382141 3643.929688,381.789642 3687.730957,425.103149 
	C3690.177979,427.522949 3691.081299,429.897125 3691.076172,433.309967 
	C3690.974609,502.142944 3690.971680,570.976135 3691.084229,639.809082 
	C3691.090088,643.268372 3690.047607,645.589966 3687.646729,647.980164 
	C3653.277588,682.198914 3619.003174,716.512634 3584.690430,750.787964 
	C3583.515869,751.961060 3582.182617,752.975220 3580.901855,754.082153 
	C3591.666504,773.439636 3602.265869,792.332642 3612.698242,811.317139 
	C3619.743408,824.136658 3626.446289,837.143982 3633.493164,849.962341 
	C3645.575928,871.940674 3657.853516,893.811829 3669.959717,915.777466 
	C3676.631836,927.882996 3683.069580,940.117249 3689.705322,952.242981 
	C3698.269287,967.892944 3706.929199,983.490234 3715.513184,999.129211 
	C3715.694092,999.458618 3715.452148,1000.020203 3715.703857,1000.736694 
	C3631.312500,1001.000000 3546.625000,1001.000000 3461.468750,1001.000000 
z"/>
<path fill="#FFFFFF" opacity="1.000000" stroke="none" 
	d="
M1892.468628,1001.000000 
	C1892.000000,904.524719 1892.000000,808.049500 1892.000000,711.177307 
	C1833.046509,711.177307 1774.309692,711.177307 1715.286865,711.177307 
	C1715.286865,663.045105 1715.286865,615.308594 1715.286865,567.174438 
	C1773.289673,567.174438 1831.359863,567.174438 1889.823975,567.174438 
	C1889.823975,473.710663 1889.823975,380.642426 1889.823975,287.287415 
	C1969.952637,287.287415 2049.687500,287.287415 2129.775391,287.287415 
	C2129.846924,288.629578 2129.990479,290.065338 2129.990479,291.501099 
	C2130.000488,526.152466 2130.001221,760.803833 2129.971191,995.455200 
	C2129.970947,997.048096 2129.537598,998.640991 2129.653076,1000.616943 
	C2050.979004,1001.000000 1971.958130,1001.000000 1892.468628,1001.000000 
z"/>
<path fill="#FFFFFF" opacity="1.000000" stroke="none" 
	d="
M557.468628,1001.000000 
	C554.342957,993.767883 551.759827,986.507507 549.014465,979.309082 
	C541.887329,960.622070 534.688843,941.962341 527.395691,922.971069 
	C449.815796,922.971069 372.024323,922.971069 293.675537,922.971069 
	C310.395508,875.098938 326.965759,827.655640 343.591949,780.052124 
	C386.180084,780.052124 428.831116,780.052124 471.920319,780.052124 
	C408.466431,615.782166 345.122375,451.796509 281.592041,287.328583 
	C283.318237,287.193207 284.549957,287.012268 285.781677,287.012054 
	C360.445007,286.998596 435.108337,287.025757 509.771515,286.915314 
	C513.104004,286.910400 514.823303,287.915192 516.012878,290.937225 
	C524.402527,312.250000 532.934082,333.506836 541.351562,354.808685 
	C551.946594,381.621033 562.401184,408.489075 573.058411,435.276581 
	C581.173096,455.673370 589.598877,475.946320 597.724609,496.338806 
	C608.573975,523.566406 619.193726,550.885498 630.048706,578.110779 
	C639.542725,601.922607 649.318542,625.622131 658.800720,649.438660 
	C669.642029,676.668701 680.225464,704.001465 691.053406,731.236938 
	C700.642273,755.355713 710.461914,779.382690 720.090027,803.486023 
	C730.785095,830.260010 741.354492,857.084290 752.023804,883.868652 
	C760.323914,904.705200 768.727295,925.500610 777.021484,946.339539 
	C783.832031,963.450867 790.560425,980.594971 797.272888,997.745056 
	C797.575623,998.518616 797.361328,999.494629 797.693970,1000.688171 
	C717.979126,1001.000000 637.958191,1001.000000 557.468628,1001.000000 
z"/>
<path fill="#FFFFFF" opacity="1.000000" stroke="none" 
	d="
M1440.468628,1001.000000 
	C1440.000000,763.195190 1440.000000,525.390381 1440.000000,287.292786 
	C1519.609497,287.292786 1599.012085,287.292786 1678.773315,287.292786 
	C1678.844971,288.620026 1678.990356,290.054932 1678.990479,291.489838 
	C1679.000488,526.145081 1679.001343,760.800293 1678.971313,995.455566 
	C1678.971191,997.048401 1678.537354,998.641174 1678.653076,1000.617004 
	C1599.645752,1001.000000 1520.291504,1001.000000 1440.468628,1001.000000 
z"/>
<path fill="#FFFFFF" opacity="1.000000" stroke="none" 
	d="
M3001.468750,1001.000000 
	C3001.000000,763.195190 3001.000000,525.390381 3001.000000,287.292847 
	C3080.609375,287.292847 3160.011963,287.292847 3239.773682,287.292847 
	C3239.845215,288.620209 3239.990723,290.055054 3239.990723,291.489899 
	C3240.000732,526.145020 3240.001221,760.800171 3239.971191,995.455261 
	C3239.970947,997.048096 3239.537354,998.640930 3239.652832,1000.616943 
	C3160.645752,1001.000000 3081.291748,1001.000000 3001.468750,1001.000000 
z"/>
<path fill="#FFFFFF" opacity="1.000000" stroke="none" 
	d="
M916.468628,1001.000000 
	C916.000000,827.194702 916.000000,653.389343 916.000000,479.292053 
	C998.610107,479.292053 1081.011719,479.292053 1163.773193,479.292053 
	C1163.844849,480.618378 1163.990479,482.053131 1163.990479,483.487854 
	C1164.000732,654.143738 1164.001831,824.799683 1163.971191,995.455566 
	C1163.970947,997.048401 1163.537231,998.641174 1163.652954,1000.617004 
	C1081.645752,1001.000000 999.291565,1001.000000 916.468628,1001.000000 
z"/>
<path fill="#FFFFFF" opacity="1.000000" stroke="none" 
	d="
M0.999989,997.500000 
	C1.664529,996.526611 2.704054,996.192993 2.939866,995.559875 
	C14.677430,964.050415 26.255627,932.481323 38.047832,900.992371 
	C49.843037,869.495300 61.936226,838.109741 73.728661,806.611572 
	C84.340370,778.267151 94.642960,749.807190 105.224144,721.451172 
	C118.213539,686.641663 131.377045,651.897156 144.415878,617.106018 
	C155.768356,586.814514 167.029694,556.488953 178.372711,526.193909 
	C189.379074,496.798096 200.461304,467.430664 211.467667,438.034821 
	C222.810684,407.739746 234.095200,377.422791 245.420868,347.121216 
	C248.887192,337.847168 252.404922,328.592346 256.442627,317.887848 
	C260.039703,327.671265 263.141022,336.213745 266.318390,344.727875 
	C275.669067,369.783875 285.050751,394.828217 294.418732,419.877777 
	C306.199524,451.379150 318.043182,482.857208 329.738068,514.390442 
	C338.925781,539.163513 347.923309,564.007080 357.027618,588.811096 
	C357.580414,590.317200 358.167633,591.852661 359.013519,593.202332 
	C364.821472,602.469604 359.508331,610.938721 356.823822,619.346130 
	C348.046783,646.834412 338.831451,674.182617 329.795105,701.588196 
	C322.415741,723.968445 315.031189,746.346985 307.685944,768.738403 
	C300.389740,790.980225 293.160065,813.243896 285.863892,835.485657 
	C278.518585,857.877136 271.127380,880.253479 263.756317,902.636475 
	C256.385223,925.019531 249.031174,947.408142 241.635452,969.783081 
	C238.261475,979.990601 234.805237,990.171021 231.693146,1000.681885 
	C155.000000,1001.000000 78.000000,1001.000000 1.000000,1000.996826 
	C1.000000,999.995728 1.000000,998.997864 0.999989,997.500000 
z"/>
<path fill="#FFFFFF" opacity="1.000000" stroke="none" 
	d="
M2520.468750,1001.000000 
	C2520.000000,953.191406 2520.000000,905.382812 2520.000000,857.179443 
	C2564.618164,857.179443 2609.020508,857.179443 2653.819336,857.179443 
	C2653.819336,833.385132 2653.819336,809.979431 2653.819336,786.288086 
	C2733.280762,786.288086 2812.345459,786.288086 2891.771973,786.288086 
	C2891.843994,787.614502 2891.989990,789.048645 2891.990234,790.482788 
	C2892.001465,858.806946 2892.004639,927.131042 2891.970947,995.455200 
	C2891.970215,997.048218 2891.537354,998.640930 2891.653076,1000.616943 
	C2768.312500,1001.000000 2644.625000,1001.000000 2520.468750,1001.000000 
z"/>
<path fill="#FFFFFF" opacity="1.000000" stroke="none" 
	d="
M1261.000000,287.000000 
	C1290.809814,287.000000 1320.119629,287.000000 1349.714355,287.000000 
	C1349.714355,338.958679 1349.714355,390.696167 1349.714355,442.717102 
	C1143.372192,442.717102 936.971680,442.717102 730.285522,442.717102 
	C730.285522,391.041351 730.285522,339.303833 730.285522,287.000000 
	C906.984680,287.000000 1083.742310,287.000000 1261.000000,287.000000 
z"/>
<path fill="#FFFFFF" opacity="1.000000" stroke="none" 
	d="
M2714.000000,494.000000 
	C2698.523438,494.000000 2683.546875,494.000000 2668.171631,494.000000 
	C2668.171631,471.376740 2668.171631,448.969879 2668.171631,426.167419 
	C2618.704102,426.167419 2569.633057,426.167419 2520.281738,426.167419 
	C2520.281738,379.700989 2520.281738,333.631165 2520.281738,287.280396 
	C2643.965088,287.280396 2767.697754,287.280396 2891.715332,287.280396 
	C2891.715332,355.959229 2891.715332,424.694580 2891.715332,494.000000 
	C2832.685303,494.000000 2773.592529,494.000000 2714.000000,494.000000 
z"/>
</svg>